<?xml version="1.0" standalone="no"?>
<!DOCTYPE svg PUBLIC "-//W3C//DTD SVG 20010904//EN"
 "http://www.w3.org/TR/2001/REC-SVG-20010904/DTD/svg10.dtd">
<svg version="1.0" xmlns="http://www.w3.org/2000/svg"
 width="512.000000pt" height="512.000000pt" viewBox="0 0 512.000000 512.000000"
 preserveAspectRatio="xMidYMid meet">
<metadata>
Created by potrace 1.14, written by Peter Selinger 2001-2017
</metadata>
<g transform="translate(0.000000,512.000000) scale(0.100000,-0.100000)"
fill="#000000" stroke="none">
<path d="M605 5105 c-100 -20 -241 -81 -283 -122 -7 -7 -17 -13 -21 -13 -4 0
-36 -28 -70 -62 -109 -108 -176 -224 -210 -365 -19 -76 -19 -138 -18 -1998 2
-1056 6 -1933 10 -1948 81 -299 272 -497 552 -573 68 -18 133 -19 2005 -19
1850 0 1938 1 1995 18 118 37 214 89 318 177 73 61 172 222 209 340 l23 75 0
1950 0 1950 -27 80 c-56 164 -173 317 -309 405 -76 49 -196 96 -280 109 -100
17 -3815 13 -3894 -4z"/>
</g>
</svg>
